<svg width="18" height="16" viewBox="0 0 18 16" fill="none" xmlns="http://www.w3.org/2000/svg">
<mask id="path-1-inside-1_27_203" fill="white">
<path d="M2 6L3.5 1.5H14.5L16 6M14.5 11C14.1022 11 13.7206 10.842 13.4393 10.5607C13.158 10.2794 13 9.89782 13 9.5C13 9.10218 13.158 8.72064 13.4393 8.43934C13.7206 8.15804 14.1022 8 14.5 8C14.8978 8 15.2794 8.15804 15.5607 8.43934C15.842 8.72064 16 9.10218 16 9.5C16 9.89782 15.842 10.2794 15.5607 10.5607C15.2794 10.842 14.8978 11 14.5 11ZM3.5 11C3.10218 11 2.72064 10.842 2.43934 10.5607C2.15804 10.2794 2 9.89782 2 9.5C2 9.10218 2.15804 8.72064 2.43934 8.43934C2.72064 8.15804 3.10218 8 3.5 8C3.89782 8 4.27936 8.15804 4.56066 8.43934C4.84196 8.72064 5 9.10218 5 9.5C5 9.89782 4.84196 10.2794 4.56066 10.5607C4.27936 10.842 3.89782 11 3.5 11ZM15.92 1C15.72 0.42 15.16 0 14.5 0H3.5C2.84 0 2.28 0.42 2.08 1L0 7V15C0 15.2652 0.105357 15.5196 0.292893 15.7071C0.48043 15.8946 0.734784 16 1 16H2C2.26522 16 2.51957 15.8946 2.70711 15.7071C2.89464 15.5196 3 15.2652 3 15V14H15V15C15 15.2652 15.1054 15.5196 15.2929 15.7071C15.4804 15.8946 15.7348 16 16 16H17C17.2652 16 17.5196 15.8946 17.7071 15.7071C17.8946 15.5196 18 15.2652 18 15V7L15.92 1Z"/>
</mask>
<path d="M2 6L3.5 1.5H14.5L16 6M14.5 11C14.1022 11 13.7206 10.842 13.4393 10.5607C13.158 10.2794 13 9.89782 13 9.5C13 9.10218 13.158 8.72064 13.4393 8.43934C13.7206 8.15804 14.1022 8 14.5 8C14.8978 8 15.2794 8.15804 15.5607 8.43934C15.842 8.72064 16 9.10218 16 9.5C16 9.89782 15.842 10.2794 15.5607 10.5607C15.2794 10.842 14.8978 11 14.5 11ZM3.5 11C3.10218 11 2.72064 10.842 2.43934 10.5607C2.15804 10.2794 2 9.89782 2 9.5C2 9.10218 2.15804 8.72064 2.43934 8.43934C2.72064 8.15804 3.10218 8 3.5 8C3.89782 8 4.27936 8.15804 4.56066 8.43934C4.84196 8.72064 5 9.10218 5 9.5C5 9.89782 4.84196 10.2794 4.56066 10.5607C4.27936 10.842 3.89782 11 3.5 11ZM15.92 1C15.72 0.42 15.16 0 14.5 0H3.5C2.84 0 2.28 0.42 2.08 1L0 7V15C0 15.2652 0.105357 15.5196 0.292893 15.7071C0.48043 15.8946 0.734784 16 1 16H2C2.26522 16 2.51957 15.8946 2.70711 15.7071C2.89464 15.5196 3 15.2652 3 15V14H15V15C15 15.2652 15.1054 15.5196 15.2929 15.7071C15.4804 15.8946 15.7348 16 16 16H17C17.2652 16 17.5196 15.8946 17.7071 15.7071C17.8946 15.5196 18 15.2652 18 15V7L15.92 1Z" fill="white"/>
<path d="M3.5 1.5V0.5H2.77924L2.55132 1.18377L3.5 1.5ZM14.5 1.5L15.4487 1.18377L15.2208 0.5H14.5V1.5ZM14.5 11L14.5 12L14.5 11ZM14.5 8L14.5 7L14.5 8ZM3.5 11L3.5 12L3.5 11ZM3.5 8L3.5 7L3.5 8ZM15.92 1L14.9746 1.32599L14.9752 1.32754L15.92 1ZM2.08 1L3.02484 1.32754L3.02537 1.32599L2.08 1ZM0 7L-0.944836 6.67246L-1 6.83158V7H0ZM0 15L-1 15L0 15ZM3 14V13H2V14H3ZM15 14H16V13H15V14ZM18 7H19V6.83158L18.9448 6.67246L18 7ZM2.94868 6.31623L4.44868 1.81623L2.55132 1.18377L1.05132 5.68377L2.94868 6.31623ZM3.5 2.5H14.5V0.5H3.5V2.5ZM13.5513 1.81623L15.0513 6.31623L16.9487 5.68377L15.4487 1.18377L13.5513 1.81623ZM14.5 10C14.3674 10 14.2402 9.94732 14.1464 9.85355L12.7322 11.2678C13.2011 11.7366 13.837 12 14.5 12L14.5 10ZM14.1464 9.85355C14.0527 9.75978 14 9.63261 14 9.5H12C12 10.163 12.2634 10.7989 12.7322 11.2678L14.1464 9.85355ZM14 9.5C14 9.36739 14.0527 9.24022 14.1464 9.14645L12.7322 7.73223C12.2634 8.20107 12 8.83696 12 9.5H14ZM14.1464 9.14645C14.2402 9.05268 14.3674 9 14.5 9L14.5 7C13.837 7 13.2011 7.26339 12.7322 7.73223L14.1464 9.14645ZM14.5 9C14.6326 9 14.7598 9.05268 14.8536 9.14645L16.2678 7.73223C15.7989 7.26339 15.163 7 14.5 7L14.5 9ZM14.8536 9.14645C14.9473 9.24022 15 9.36739 15 9.5H17C17 8.83696 16.7366 8.20107 16.2678 7.73223L14.8536 9.14645ZM15 9.5C15 9.63261 14.9473 9.75978 14.8536 9.85355L16.2678 11.2678C16.7366 10.7989 17 10.163 17 9.5H15ZM14.8536 9.85355C14.7598 9.94732 14.6326 10 14.5 10L14.5 12C15.163 12 15.7989 11.7366 16.2678 11.2678L14.8536 9.85355ZM3.5 10C3.36739 10 3.24021 9.94732 3.14645 9.85355L1.73223 11.2678C2.20107 11.7366 2.83696 12 3.5 12L3.5 10ZM3.14645 9.85355C3.05268 9.75979 3 9.63261 3 9.5H1C1 10.163 1.26339 10.7989 1.73223 11.2678L3.14645 9.85355ZM3 9.5C3 9.36739 3.05268 9.24021 3.14645 9.14645L1.73223 7.73223C1.26339 8.20107 1 8.83696 1 9.5H3ZM3.14645 9.14645C3.24021 9.05268 3.36739 9 3.5 9L3.5 7C2.83696 7 2.20107 7.26339 1.73223 7.73223L3.14645 9.14645ZM3.5 9C3.63261 9 3.75979 9.05268 3.85355 9.14645L5.26777 7.73223C4.79893 7.26339 4.16304 7 3.5 7L3.5 9ZM3.85355 9.14645C3.94732 9.24021 4 9.36739 4 9.5H6C6 8.83696 5.73661 8.20107 5.26777 7.73223L3.85355 9.14645ZM4 9.5C4 9.63261 3.94732 9.75979 3.85355 9.85355L5.26777 11.2678C5.73661 10.7989 6 10.163 6 9.5H4ZM3.85355 9.85355C3.75979 9.94732 3.63261 10 3.5 10L3.5 12C4.16304 12 4.79893 11.7366 5.26777 11.2678L3.85355 9.85355ZM16.8654 0.674009C16.5278 -0.304997 15.5912 -1 14.5 -1V1C14.7288 1 14.9122 1.145 14.9746 1.32599L16.8654 0.674009ZM14.5 -1H3.5V1H14.5V-1ZM3.5 -1C2.4088 -1 1.47222 -0.304997 1.13463 0.674009L3.02537 1.32599C3.08778 1.145 3.2712 1 3.5 1V-1ZM1.13516 0.672457L-0.944836 6.67246L0.944836 7.32754L3.02484 1.32754L1.13516 0.672457ZM-1 7V15H1V7H-1ZM-1 15C-1 15.5304 -0.789287 16.0391 -0.414214 16.4142L1 15L1 15L-1 15ZM-0.414214 16.4142C-0.0391394 16.7893 0.469569 17 1 17V15L1 15L-0.414214 16.4142ZM1 17H2V15H1V17ZM2 17C2.53043 17 3.03914 16.7893 3.41421 16.4142L2 15L2 15V17ZM3.41421 16.4142C3.78929 16.0391 4 15.5304 4 15H2L2 15L3.41421 16.4142ZM4 15V14H2V15H4ZM3 15H15V13H3V15ZM14 14V15H16V14H14ZM14 15C14 15.5304 14.2107 16.0391 14.5858 16.4142L16 15L16 15H14ZM14.5858 16.4142C14.9609 16.7893 15.4696 17 16 17V15L16 15L14.5858 16.4142ZM16 17H17V15H16V17ZM17 17C17.5304 17 18.0391 16.7893 18.4142 16.4142L17 15L17 15V17ZM18.4142 16.4142C18.7893 16.0391 19 15.5304 19 15H17L17 15L18.4142 16.4142ZM19 15V7H17V15H19ZM18.9448 6.67246L16.8648 0.672457L14.9752 1.32754L17.0552 7.32754L18.9448 6.67246Z" fill="white" mask="url(#path-1-inside-1_27_203)"/>
</svg>
